<?xml version="1.0" encoding="UTF-8"?>
<svg id="Capa_2" xmlns="http://www.w3.org/2000/svg" version="1.1" viewBox="0 0 251.6 321">
  <!-- Generator: Adobe Illustrator 29.0.1, SVG Export Plug-In . SVG Version: 2.1.0 Build 192)  -->
  <defs>
    <style>
      .st0 {
        fill: #1a1a1a;
      }

      .st1 {
        display: none;
      }
    </style>
  </defs>
  <g id="Capa_1-2" class="st1">
    <polygon class="st0" points="69.6 0 0 0 0 321 30.5 321 69.6 321 251.6 321 251.6 255.9 69.6 255.9 69.6 0"/>
    <polygon class="st0" points="215.3 0 201.4 0 201.4 64.1 207.5 64.1 215.3 64.1 251.6 64.1 251.6 51.1 215.3 51.1 215.3 0"/>
    <polygon class="st0" points="170.4 0 139.3 0 139.3 143.3 152.9 143.3 170.4 143.3 251.6 143.3 251.6 114.2 170.4 114.2 170.4 0"/>
  </g>
  <g>
    <path class="st0" d="M153.1,109.9c-8.1-4.8-17.4-7.1-28.1-7.1s-19.8,2.4-28,7.1c-8.1,4.8-14.5,11.5-19.1,20.2-4.6,8.7-6.8,18.9-6.8,30.5s2.3,21.7,6.8,30.3c4.6,8.6,10.9,15.4,19.1,20.2,8.1,4.8,17.5,7.3,28,7.3s20-2.4,28.1-7.3c8.1-4.8,14.4-11.6,19-20.2,4.6-8.6,6.8-18.7,6.8-30.3s-2.3-21.8-6.8-30.5c-4.6-8.7-10.9-15.4-19-20.2ZM141.3,183.2c-3.9,5-9.4,7.6-16.3,7.6s-12.3-2.5-16.3-7.6c-3.9-5-5.9-12.6-5.9-22.7s2-17.6,5.9-22.7c3.9-5,9.4-7.6,16.3-7.6s12.3,2.5,16.3,7.6c3.9,5,5.9,12.6,5.9,22.7s-2,17.6-5.9,22.7Z"/>
    <path class="st0" d="M97.6,259.6c7.9,4.8,17.1,7.2,27.4,7.2s19.3-2.4,27.3-7.2c8-4.8,14.3-11.5,18.8-20.2,1.8-3.6,3.3-7.4,4.4-11.4h-32.1c-.8,2.2-1.8,4-3,5.5-3.9,4.9-9,7.4-15.3,7.4s-12.2-2.4-15.9-7.2c-1.2-1.5-2.1-3.4-2.9-5.6h-31.7c1.1,4.1,2.5,7.9,4.4,11.5,4.5,8.6,10.7,15.3,18.6,20.1Z"/>
    <path class="st0" d="M97.6,308.1c7.9,4.8,17.1,7.2,27.4,7.2s19.3-2.4,27.3-7.2c8-4.8,14.3-11.5,18.8-20.2,1.8-3.6,3.3-7.4,4.4-11.4h-32.1c-.8,2.2-1.8,4-3,5.5-3.9,4.9-9,7.4-15.3,7.4s-12.2-2.4-15.9-7.2c-1.2-1.5-2.1-3.4-2.9-5.6h-31.7c1.1,4.1,2.5,7.9,4.4,11.5,4.5,8.6,10.7,15.3,18.6,20.1Z"/>
    <path class="st0" d="M152.3,61.4c-8-4.8-17.1-7.2-27.3-7.2s-19.5,2.4-27.4,7.2c-7.9,4.8-14.2,11.5-18.6,20.1-1.9,3.6-3.3,7.4-4.4,11.5h31.7c.8-2.2,1.8-4.1,2.9-5.6,3.7-4.8,8.9-7.2,15.9-7.2s11.5,2.5,15.3,7.4c1.2,1.5,2.2,3.3,3,5.5h32.1c-1.1-4-2.5-7.8-4.4-11.4-4.5-8.7-10.7-15.4-18.8-20.2Z"/>
    <path class="st0" d="M152.3,12.9c-8-4.8-17.1-7.2-27.3-7.2s-19.5,2.4-27.4,7.2c-7.9,4.8-14.2,11.5-18.6,20.1-1.9,3.6-3.3,7.4-4.4,11.5h31.7c.8-2.2,1.8-4.1,2.9-5.6,3.7-4.8,8.9-7.2,15.9-7.2s11.5,2.5,15.3,7.4c1.2,1.5,2.2,3.3,3,5.5h32.1c-1.1-4-2.5-7.8-4.4-11.4-4.5-8.7-10.7-15.4-18.8-20.2Z"/>
  </g>
</svg>