<?xml version="1.0" encoding="UTF-8"?>
<svg id="Capa_1" xmlns="http://www.w3.org/2000/svg" version="1.1" viewBox="0 0 200 120">
  <!-- Generator: Adobe Illustrator 29.0.1, SVG Export Plug-In . SVG Version: 2.1.0 Build 192)  -->
  <defs>
    <style>
      .st0 {
        fill: #1d1d1b;
      }
    </style>
  </defs>
  <g>
    <path class="st0" d="M49,103h-2.5c0-.3-.1-.7-.1-1.1s0-.8.1-1.1h2.5v-1.1c0-1.8.5-3.3,1.6-4.2,1.1-1,2.6-1.4,4.5-1.4s1.5,0,2.1.1c.6,0,1.3.3,2.1.6,0,.4,0,.9-.2,1.3-.1.4-.3.8-.5,1.1-.6-.2-1.1-.4-1.6-.5-.5,0-1.1-.1-1.7-.1s-1,0-1.4.1c-.4,0-.8.3-1.1.5-.3.2-.6.6-.7,1-.2.4-.3,1-.3,1.7v1h9v15c-.2,0-.5,0-.7,0-.3,0-.5,0-.7,0s-.5,0-.7,0-.5,0-.7,0v-12.7h-6.2v12.7c-.2,0-.5,0-.7,0s-.5,0-.7,0-.5,0-.7,0c-.3,0-.5,0-.7,0v-12.7Z"/>
    <path class="st0" d="M65.5,94.3c.2,0,.5,0,.7,0s.5,0,.7,0,.5,0,.7,0c.3,0,.5,0,.7,0v16.9c0,.5,0,1,.1,1.3,0,.3.2.5.4.7.2.2.4.3.6.3.2,0,.5,0,.7,0s.4,0,.6,0c.2,0,.4,0,.6,0,.2.7.3,1.4.3,2.2-.3,0-.6.2-1,.2-.4,0-.7,0-1.1,0-.6,0-1.1,0-1.6-.2-.5-.1-.9-.4-1.3-.7-.4-.3-.7-.7-.9-1.3-.2-.5-.3-1.2-.3-2v-17.5Z"/>
    <path class="st0" d="M74.2,100.7c.2,0,.4,0,.6,0,.2,0,.4,0,.6,0s.4,0,.6,0c.2,0,.4,0,.6,0,0,.3.1.7.2,1.2,0,.5,0,.9,0,1.2.2-.3.4-.7.7-1,.3-.3.6-.6.9-.9.4-.3.8-.5,1.2-.6.5-.2,1-.2,1.5-.2,1.2,0,2.1.2,2.7.7.6.5,1.1,1.1,1.4,2,.2-.3.4-.7.7-1,.3-.3.6-.6.9-.9.4-.3.7-.5,1.2-.6.4-.2,1-.2,1.5-.2,1.7,0,3,.5,3.8,1.5.8,1,1.2,2.4,1.2,4.3v9.5c-.2,0-.5,0-.7,0-.3,0-.5,0-.7,0s-.5,0-.7,0c-.3,0-.5,0-.7,0v-8.7c0-1.3-.2-2.3-.6-3-.4-.7-1.1-1-2-1s-1.8.4-2.4,1.1c-.6.7-.9,1.8-.9,3.2v8.5c-.2,0-.5,0-.7,0s-.5,0-.7,0-.5,0-.7,0c-.3,0-.5,0-.7,0v-8.9c0-1.3-.2-2.3-.6-2.9-.4-.7-1-1-1.9-1s-.9.1-1.4.3c-.4.2-.8.5-1.1,1-.3.4-.6,1-.8,1.6-.2.7-.3,1.4-.3,2.3v7.6c-.2,0-.5,0-.7,0-.3,0-.5,0-.7,0s-.5,0-.7,0c-.3,0-.5,0-.7,0v-15Z"/>
    <path class="st0" d="M98.9,113c.5.2,1.1.4,1.7.5.6.1,1.3.2,1.9.2s.9,0,1.3-.1c.4,0,.8-.2,1.1-.4s.5-.4.7-.7c.2-.3.3-.6.3-.9s0-.7-.2-1c-.1-.3-.3-.5-.6-.6-.2-.2-.5-.3-.8-.5s-.7-.2-1-.4l-1-.4c-1.2-.5-2.1-1-2.7-1.6-.6-.6-.8-1.4-.8-2.4s.5-2.4,1.4-3.2c.9-.8,2.3-1.2,4.2-1.2s1.5,0,2.2.2c.7.1,1.4.3,1.9.5,0,.4-.1.8-.2,1.2-.1.4-.2.7-.4,1.1-.4-.2-.9-.3-1.5-.5-.6-.1-1.2-.2-1.9-.2s-1.4.1-1.9.4c-.6.3-.8.7-.8,1.3s0,.6.2.8.3.4.6.6c.2.2.5.3.8.4.3.1.6.2,1,.4l1.3.4c.5.2.9.3,1.3.6.4.2.8.5,1.1.8.3.3.5.7.7,1.2.2.5.3,1,.3,1.6s-.1,1.4-.4,2c-.3.6-.7,1.1-1.2,1.5-.5.4-1.2.7-1.9,1-.8.2-1.6.4-2.5.4s-1.7,0-2.5-.2c-.7-.1-1.4-.3-2-.5,0-.4.1-.8.2-1.2.1-.4.3-.8.4-1.2Z"/>
  </g>
  <polygon class="st0" points="55.1 79.1 55.1 46.8 46.3 46.8 46.3 87.4 50.1 87.4 55.1 87.4 78.1 87.4 78.1 79.1 55.1 79.1"/>
  <g>
    <path class="st0" d="M107.9,68c0-3.6-1.1-6.4-3.4-8.4-2.3-2-5.3-3-9.2-3s-6.5.8-8.9,2.4c-2.4,1.6-4,3.9-4.8,7.1l8.1,1.8c.3-1.6,1-2.7,1.8-3.3.9-.7,1.9-1,3.2-1s2.3.4,3.2,1.2c.9.8,1.4,2.2,1.4,4.1v.3l-9,1.5c-3.1.5-5.5,1.6-7,3.3-1.5,1.7-2.2,3.7-2.2,5.9s.8,4.6,2.3,6.1c1.5,1.6,3.8,2.3,6.7,2.3s4-.5,5.7-1.6c1.4-.9,2.6-2.2,3.5-3.8,0,.5,0,1.1.2,1.6.1,1,.3,2,.5,3h8.6c-.6-2.2-.9-4.5-.9-6.7v-12.7ZM95.8,80.7c-1,.5-2.1.7-3.2.7s-1.7-.2-2.1-.7c-.5-.5-.7-1.1-.7-1.8s.3-1.3.8-1.9c.5-.6,1.5-1.1,3-1.4l5.9-1.2v.4c0,1.4-.3,2.7-1,3.7-.7,1-1.5,1.8-2.6,2.2"/>
    <path class="st0" d="M135.6,58.4c-1.7-1.3-3.8-1.9-6.1-1.9s-5.4,1.2-7.3,3.5c-.5.6-.9,1.4-1.3,2.1v-15.4h-8.5v40.6h8.5v-4.9c.4.8.8,1.5,1.3,2.2,1.9,2.4,4.3,3.5,7.3,3.5s4.4-.6,6.1-1.9c1.7-1.3,3.1-3.1,4-5.4.9-2.4,1.4-5.2,1.4-8.5s-.5-6.2-1.4-8.5c-.9-2.3-2.3-4.2-4-5.4M130.7,78.5c-1.1,1.4-2.6,2.1-4.4,2.1s-3.2-.7-4.3-2.1c-1.1-1.4-1.6-3.4-1.6-6.2s.5-4.8,1.6-6.2c1.1-1.4,2.5-2.1,4.3-2.1s3.3.7,4.4,2.1c1.1,1.4,1.6,3.4,1.6,6.2s-.5,4.8-1.6,6.2"/>
    <rect class="st0" x="178.1" y="46.8" width="8.5" height="40.6"/>
    <polygon class="st0" points="46.3 43.1 46.3 3.9 39.2 3.9 37.5 3.9 30.8 3.9 24.4 35.1 18 3.9 10.9 3.9 9.2 3.9 2.6 3.9 2.6 43.1 10.9 43.1 10.9 11.5 18 43.1 22.8 43.1 26.1 43.1 30.6 43.1 37.5 11.7 37.5 43.1 46.3 43.1"/>
    <path class="st0" d="M71.5,14.2c-2.2-1.3-4.8-2-7.7-2s-5.4.7-7.7,2c-2.2,1.3-4,3.2-5.2,5.5-1.2,2.4-1.9,5.2-1.9,8.3s.6,6,1.9,8.3c1.2,2.4,3,4.2,5.2,5.5,2.2,1.3,4.8,2,7.7,2s5.5-.7,7.7-2c2.2-1.3,3.9-3.2,5.2-5.5,1.2-2.4,1.9-5.1,1.9-8.3s-.6-6-1.9-8.3c-1.2-2.4-3-4.2-5.2-5.5M68.3,34.3c-1.1,1.4-2.6,2.1-4.5,2.1s-3.4-.7-4.5-2.1c-1.1-1.4-1.6-3.5-1.6-6.2s.5-4.8,1.6-6.2c1.1-1.4,2.6-2.1,4.5-2.1s3.4.7,4.5,2.1c1.1,1.4,1.6,3.5,1.6,6.2s-.5,4.8-1.6,6.2"/>
    <path class="st0" d="M89.8,25.9c0-2,.5-3.5,1.4-4.6,1-1,2.2-1.6,3.7-1.6s2.8.5,3.7,1.6c1,1,1.4,2.6,1.4,4.6v17.3h8.5v-19c0-2.5-.4-4.6-1.3-6.4-.9-1.8-2-3.1-3.5-4.1-1.5-.9-3.3-1.4-5.2-1.4s-3.9.5-5.4,1.6c-1.4,1-2.5,2.3-3.3,4.1v-4.9h-8.5v30.1h8.5v-17.3Z"/>
    <path class="st0" d="M163.6,36.8c-2.2-1.3-4.7-2-7.5-2s-5.3.7-7.5,2c-2.2,1.3-3.9,3.2-5.1,5.5-1.2,2.4-1.8,5.2-1.8,8.3s.6,5.9,1.8,8.3c1.2,2.4,2.9,4.2,5.1,5.6,2.2,1.3,4.7,2,7.5,2s6.8-.8,9.2-2.4c2.3-1.6,3.9-3.7,4.6-6.3l-8.1-2c-.4,1.2-1,2.1-2,2.7-.9.6-2,.9-3.3.9-1.9,0-3.4-.7-4.5-2.1-.8-1-1.3-2.4-1.5-4.1h20.1c0-.4,0-.8,0-1.2,0-.4,0-.8,0-1.2,0-3.2-.6-6-1.8-8.4-1.2-2.4-2.9-4.2-5.1-5.5M150.5,47.4c.3-1.5.7-2.6,1.3-3.4,1.1-1.3,2.5-2,4.2-2s3.3.7,4.3,2c.6.8,1,2,1.3,3.5h-11.2Z"/>
    <path class="st0" d="M148.5,21.7c2.2,1.3,4.7,2,7.5,2s5.3-.7,7.5-2c2.2-1.3,3.9-3.1,5.1-5.5.5-1,.9-2,1.2-3.1h-8.8c-.2.6-.5,1.1-.8,1.5-1.1,1.3-2.5,2-4.2,2s-3.3-.7-4.3-2c-.3-.4-.6-.9-.8-1.5h-8.7c.3,1.1.7,2.2,1.2,3.2,1.2,2.4,2.9,4.2,5.1,5.5"/>
    <path class="st0" d="M163.5,78.7c-2.2-1.3-4.7-2-7.5-2s-5.3.7-7.5,2c-2.2,1.3-3.9,3.1-5.1,5.5-.5,1-.9,2-1.2,3.2h8.7c.2-.6.5-1.1.8-1.5,1-1.3,2.5-2,4.3-2s3.1.7,4.2,2c.3.4.6.9.8,1.5h8.8c-.3-1.1-.7-2.1-1.2-3.1-1.2-2.4-2.9-4.2-5.1-5.5"/>
    <path class="st0" d="M188.9,13l-3.5,14.4-3.6-14.4h-8.9l5.6,20.1h5.4c-.3,1.1-.9,1.9-1.8,2.4-.9.6-2.3.9-4,.9s-2.1,0-3-.3c-.9-.2-1.8-.4-2.6-.6v7.5c1,.3,2.1.5,3.1.6,1.1.2,2.2.2,3.4.2,2,0,3.8-.3,5.4-.9,1.6-.6,3-1.7,4.3-3.2,1.2-1.6,2.3-3.8,3.1-6.7l5.6-20.1h-8.6Z"/>
    <path class="st0" d="M120.9,35.1c.7,2,1.5,3.6,2.5,4.8,1.2,1.6,2.6,2.6,4.3,3.2,1.6.6,3.4.9,5.4.9s2.3,0,3.4-.2c1.1-.2,2.1-.4,3.1-.6v-7.5c-.8.2-1.7.4-2.6.6-.9.2-1.9.3-3,.3-1.7,0-3.1-.3-4-.9,0,0,0,0,0,0-1.3-.8-1.7-2.6-.9-3.9l10.5-18.7h-9.1l-9.4,18.9V13h-8.5v30.1h8.5v-8Z"/>
  </g>
</svg>