<?xml version="1.0" encoding="UTF-8"?><svg id="Capa_1" xmlns="http://www.w3.org/2000/svg" viewBox="0 0 111 55"><path d="M.53,28.4c.59-.74.41-1.67.58-2.51,1.05-5.34,5.32-9.06,10.29-8.92,1.38.04,2.68.46,3.88,1.04,1.72.84,3.29.8,5,.02,2.56-1.16,5.22-1.69,8.01-.77,1.75.57,3.21,1.56,4.43,2.94.41.47.46.73-.11,1.16-5.73,4.34-4.66,12.53,1.05,15.52.45.23.66.44.43,1.03-1.25,3.25-2.98,6.19-5.42,8.7-.81.83-1.91,1.11-2.88,1.63h-2.11c-1.09-.36-2.21-.58-3.28-.99-1.42-.55-2.87-.46-4.26.04-1.17.42-2.36.75-3.59.95h-2.41c-1.7-.53-2.87-1.73-3.93-3.08-2.47-3.15-4.21-6.64-5.16-10.54-.35-1.45-.18-2.96-.54-4.41v-1.8Z"/><path d="M47.44,48.23c-.1-.09-.19-.26-.3-.27-4.26-.7-5.3-3.37-5.37-6.94-.1-5.36-.07-10.71-.02-16.07,0-1.09-.16-1.56-1.42-1.52-2.91.09-2.84.02-2.94-2.83-.04-1.33.25-1.82,1.69-1.75,2.56.13,2.57.04,2.57-2.57,0-1.15.05-2.31-.02-3.45-.05-.83.27-1.01,1.02-.97,1.54.07,3.52-.49,4.51.26.93.71.24,2.8.27,4.29.05,2.4.01,2.4,2.42,2.4,3.1,0,3.04,0,3.12,3.09.03,1.21-.32,1.53-1.48,1.45-1.29-.09-3.03-.46-3.76.19-.86.76-.26,2.54-.27,3.87-.04,4.06-.02,8.11-.01,12.17,0,2.86,1.04,3.96,3.89,3.81,1.36-.07,1.8.3,1.58,1.59-.06.39-.06.81,0,1.2.15,1.06-.07,1.84-1.27,2.06h-4.21Z"/><path d="M25.79,6.77c.22,4.93-2.54,8.6-7.01,9.48-1.15.23-1.21-.16-1.16-1.09.18-3.67,2.87-6.95,6.69-8.08.22-.07.51.02.59-.31h.9Z"/><path d="M56.13,18.9c1.75,0,3.31.08,4.85-.03.97-.07,1.27.37,1.52,1.18,2.18,7.2,4.4,14.39,6.61,21.58.04.14.11.27.3.72.83-2.65,1.6-5.03,2.33-7.41,1.53-4.95,3.07-9.9,4.53-14.88.28-.96.71-1.32,1.66-1.18.34.05.7,0,1.05,0q3.62,0,2.45,3.33c-2.89,8.17-5.8,16.34-8.64,24.53-.32.92-.69,1.35-1.66,1.18-.19-.03-.4,0-.6,0-1.39-.08-3.09.55-4.07-.26-.9-.74-1.07-2.39-1.52-3.65-2.78-7.9-5.55-15.79-8.33-23.69-.15-.41-.28-.83-.48-1.43Z"/><path d="M99.11,41.91c0,1.7-.03,3.41.01,5.11.02.73-.24.9-.94.93-4.35.2-4.35.22-4.35-4.13,0-2.15-.06-4.31.02-6.46.04-1.09-.19-1.47-1.38-1.43-2.9.1-5.81,0-8.72.05-.87.02-1.27-.13-1.19-1.12.11-1.29-.42-2.98.22-3.78.67-.84,2.43-.24,3.72-.27,2.05-.04,4.11-.06,6.16.01.91.03,1.19-.2,1.17-1.14-.06-3.2,0-6.41-.05-9.61-.01-.91.23-1.18,1.16-1.19,4.09-.05,4.09-.08,4.09,3.96,0,2.3.04,4.61-.02,6.91-.02.85.22,1.1,1.08,1.08,3.01-.05,6.01,0,9.02-.04.83-.01,1.33.06,1.2,1.09-.16,1.32.56,3.1-.3,3.87-.73.66-2.47.2-3.77.21-2.05.01-4.11.04-6.16-.01-.79-.02-1.05.22-1.02,1.01.05,1.65.02,3.3.02,4.96Z"/></svg>