<?xml version="1.0" encoding="UTF-8"?><svg id="Capa_1" xmlns="http://www.w3.org/2000/svg" viewBox="0 0 117 55"><defs><style>.cls-1{fill:#1a1a1a;}</style></defs><path class="cls-1" d="M17.77,27.3c0,3.9,0,7.79,0,11.69,0,.23-.06.29-.29.29-1.57-.01-3.15,0-4.72,0-.19,0-.29-.04-.26-.25.02-.18-.07-.15-.19-.1-2.23.98-4.5,1.05-6.77.19-1.87-.71-3.19-2.05-4.09-3.82-.98-1.91-1.3-3.96-1.24-6.08.05-1.71.34-3.37,1.06-4.93,1.12-2.43,3.02-3.89,5.6-4.51.99-.24,2-.32,3.02-.32.79,0,1.59,0,2.38,0,.18,0,.22-.05.22-.22,0-1.24,0-2.47,0-3.71,0-.2.04-.27.26-.27,1.59.01,3.18,0,4.77,0,.2,0,.26.05.26.26,0,3.93,0,7.85,0,11.78ZM12.5,28.9c0-.81,0-1.62,0-2.43,0-.88,0-1.76,0-2.63,0-.12,0-.23-.16-.19-.2.06-.41.01-.61.03-.82.07-1.64.09-2.45.18-1.22.13-2.23.65-2.97,1.65-.7.95-.98,2.07-1.06,3.22-.08,1.04-.06,2.09.21,3.12.2.76.47,1.48,1.02,2.05.95.98,2.16,1.2,3.44,1.1.83-.06,1.63-.31,2.37-.71.16-.09.21-.17.21-.35,0-1.67,0-3.35,0-5.02Z"/><path class="cls-1" d="M32.99,30.81c-2.02,0-4.05,0-6.07,0-.28,0-.28,0-.22.26.1.45.22.89.41,1.31.7,1.6,1.95,2.46,3.67,2.61,2.81.24,5.44-.43,7.92-1.72.35-.18.35-.19.35.2,0,1.39,0,2.78,0,4.17,0,.22-.06.34-.27.43-2.76,1.22-5.63,1.8-8.65,1.54-1.84-.16-3.57-.66-5.1-1.73-1.87-1.3-3.03-3.11-3.54-5.3-.75-3.17-.44-6.25,1.13-9.12,1.35-2.47,3.48-3.92,6.27-4.37,1.74-.28,3.46-.21,5.14.34,2.43.8,4,2.47,4.8,4.88.3.9.46,1.82.5,2.76.05,1.15.05,2.31.04,3.46,0,.22-.06.28-.28.28-2.03,0-4.06,0-6.1,0ZM30.45,26.56c1.17,0,2.34,0,3.51,0,.11,0,.21.03.19-.16-.12-.75-.4-1.41-.93-1.95-.95-.95-2.12-1.16-3.39-.93-1.58.29-2.49,1.31-2.99,2.77-.09.26-.08.26.18.26,1.15,0,2.29,0,3.44,0Z"/><path class="cls-1" d="M43.54,29.36c0-3.21,0-6.42,0-9.62,0-.22.05-.28.27-.28,1.57.01,3.15,0,4.72,0,.19,0,.29.03.27.24-.02.19.08.18.22.13,1.1-.39,2.23-.71,3.4-.8,1.59-.12,3.15.03,4.61.71,1.68.78,2.64,2.16,3.11,3.91.24.88.36,1.78.36,2.69.01,4.24,0,8.48.01,12.72,0,.16-.04.21-.2.21-1.62,0-3.24,0-4.86,0-.21,0-.21-.1-.21-.25,0-3.76,0-7.52,0-11.27,0-.55-.02-1.1-.1-1.64-.21-1.46-.9-2.18-2.37-2.41-1.29-.2-2.52,0-3.7.58-.2.1-.28.21-.28.45,0,4.75,0,9.5,0,14.25q0,.29-.3.29c-1.58,0-3.16,0-4.74,0-.19,0-.24-.06-.24-.24,0-3.22,0-6.45,0-9.67Z"/><path class="cls-1" d="M116.78,29.37c0,3.2,0,6.4,0,9.6q0,.29-.29.29c-1.57,0-3.13,0-4.7,0-.19,0-.29-.03-.26-.24.02-.18-.06-.18-.2-.13-1.07.39-2.17.7-3.31.79-1.6.14-3.18,0-4.66-.67-1.66-.75-2.63-2.07-3.13-3.79-.31-1.06-.41-2.16-.41-3.26,0-4.09,0-8.19,0-12.28,0-.2.06-.23.25-.23,1.6,0,3.19,0,4.79,0,.22,0,.24.07.24.26,0,3.77,0,7.55,0,11.32,0,.67.03,1.34.18,2,.25,1.1.92,1.76,2.03,1.97,1.39.25,2.72.08,3.98-.56.18-.09.24-.2.24-.41,0-4.75,0-9.5,0-14.25,0-.38-.03-.32.31-.32,1.57,0,3.15,0,4.72,0,.19,0,.24.06.24.24,0,3.22,0,6.45,0,9.67Z"/><path class="cls-1" d="M80.55,33.09c.68.28,1.33.52,1.99.73,1.1.35,2.22.62,3.37.81.94.15,1.89.22,2.84.17.44-.02.88-.1,1.29-.27.56-.23.83-.6.82-1.16,0-.38-.26-.61-.55-.81-.42-.28-.91-.38-1.39-.51-1.15-.3-2.32-.47-3.47-.78-1.15-.31-2.26-.73-3.23-1.43-1.06-.76-1.75-1.78-1.95-3.09-.48-3.05,1.08-5.78,3.98-6.98,1.01-.41,2.05-.65,3.14-.75.72-.06,1.43-.08,2.15-.03,1.66.11,3.26.49,4.79,1.15.3.13.6.27.9.4.1.04.15.1.15.22,0,1.47,0,2.95,0,4.42,0,.2-.08.18-.22.13-1.33-.52-2.69-.92-4.08-1.22-1-.22-2.02-.39-3.06-.33-.72.04-1.45.09-2.05.53-.76.54-.53,1.25.11,1.62.64.37,1.36.53,2.07.69,1.03.23,2.08.37,3.11.64.96.26,1.9.57,2.73,1.13,1.22.81,1.98,1.94,2.24,3.38.18,1,.08,1.98-.16,2.96-.29,1.16-.86,2.13-1.74,2.92-1,.9-2.2,1.41-3.5,1.71-.75.17-1.5.28-2.27.34-.63.05-1.27.04-1.9.02-.61-.02-1.23-.12-1.83-.24-1.41-.28-2.75-.73-4.04-1.35-.18-.08-.23-.18-.23-.38,0-1.47,0-2.93,0-4.4,0-.07,0-.14,0-.25Z"/><path class="cls-1" d="M64.97,24.57c0-3.01,0-6.02,0-9.03,0-.23.06-.28.28-.28,1.58,0,3.16,0,4.74,0,.2,0,.25.05.25.25,0,1.24,0,2.47,0,3.71,0,.19.05.24.24.24,1.86,0,3.73,0,5.59-.01.23,0,.27.07.27.28,0,1.38,0,2.76,0,4.15,0,.17-.03.23-.22.21-1.87-.18-3.75-.26-5.63-.28-.21,0-.25.05-.25.25,0,2.76,0,5.53,0,8.29,0,.34,0,.67.07,1,.15.89.62,1.31,1.52,1.41.82.09,1.61-.04,2.41-.17.64-.1,1.28-.22,1.91-.38.16-.04.19.01.19.16,0,1.45,0,2.9,0,4.35,0,.14-.04.2-.17.24-1.84.53-3.71.81-5.63.68-1.12-.08-2.19-.32-3.14-.95-1.1-.73-1.72-1.79-2.06-3.04-.26-.96-.35-1.95-.36-2.95,0-2.72,0-5.44,0-8.16h0Z"/></svg>