<?xml version="1.0" encoding="UTF-8"?><svg id="Capa_1" xmlns="http://www.w3.org/2000/svg" viewBox="0 0 100.5 55"><defs><style>.cls-1{fill:#1a1a1a;}</style></defs><path class="cls-1" d="M53.63.32c1.28,0,2.56.06,3.83.17.97.08,1.93.19,2.89.34,1.72.26,3.42.61,5.1,1.07,2.16.58,4.25,1.33,6.29,2.24,2.53,1.12,4.92,2.49,7.17,4.1,2.46,1.76,4.69,3.77,6.68,6.04,1.22,1.4,2.33,2.88,3.34,4.45,1.48,2.31,2.72,4.73,3.64,7.32.06.17.13.34.18.52.1.38-.08.64-.47.65-.5.01-1.01,0-1.51,0-.35,0-.56-.19-.68-.5-.15-.39-.29-.79-.44-1.18-.72-1.89-1.64-3.69-2.7-5.41-1.79-2.92-3.98-5.5-6.52-7.8-1.81-1.64-3.76-3.08-5.85-4.33-2.27-1.36-4.65-2.49-7.15-3.37-1.21-.43-2.43-.8-3.66-1.12-.8-.21-1.59-.4-2.4-.56-1.13-.22-2.27-.4-3.41-.54-2.07-.25-4.15-.33-6.24-.29-1.64.03-3.27.16-4.89.39-1.19.16-2.37.36-3.53.63-1.06.24-2.11.52-3.15.83-1.01.31-2,.64-2.98,1.01-1.2.46-2.38.98-3.53,1.56-1.31.66-2.58,1.37-3.81,2.16-.81.52-1.59,1.08-2.35,1.65-1.52,1.14-2.93,2.39-4.26,3.74-.21.21-.42.43-.63.65-.1.1-.2.18-.33.24-.2.09-.37.07-.5-.08-.12-.13-.14-.34-.04-.51.05-.08.11-.15.17-.21,1.71-1.89,3.55-3.63,5.58-5.18,1.77-1.36,3.65-2.56,5.61-3.62,1.31-.71,2.67-1.32,4.04-1.88,1.87-.77,3.79-1.38,5.75-1.86,1.05-.25,2.1-.47,3.17-.66,1.09-.19,2.19-.34,3.29-.45,1.44-.14,2.88-.22,4.33-.21Z"/><path class="cls-1" d="M46.43,32.83c1.05.01,2.1.09,3.12.38.35.1.69.23,1.02.4.36.19.44.39.27.77-.19.42-.53.67-.97.78-.44.11-.88.15-1.33.18-1.31.1-2.63.1-3.94.19-.91.06-1.82.16-2.71.38-.15.04-.3.08-.44.14-.1.04-.21.1-.21.23,0,.13.11.18.22.21.14.04.28.08.43.1,1.15.14,2.31.27,3.46.41.95.12,1.91.22,2.83.48.5.14.99.32,1.4.66.51.42.78.99.93,1.61.2.79.17,1.58-.12,2.34-.31.78-.88,1.33-1.6,1.74-.71.4-1.48.61-2.29.72-1.53.2-2.99-.03-4.39-.67-.6-.28-1.16-.62-1.64-1.08-.27-.26-.5-.56-.66-.9-.42-.9-.1-1.91.76-2.42.54-.32,1.14-.44,1.75-.49.62-.05,1.24-.02,1.86.09.7.12,1.41.23,2.08.48.3.11.6.22.88.38.07.04.14.08.2.14.15.16.16.32.03.49-.12.16-.29.28-.48.36-.51.23-1.05.37-1.61.41-.49.03-.94-.1-1.39-.28-.48-.2-.95-.42-1.45-.57-.42-.13-.84-.19-1.26-.05-.32.11-.53.36-.53.66,0,.14.04.25.14.35.14.14.3.23.48.31.56.24,1.15.34,1.76.34,1.23,0,2.45-.11,3.62-.51.53-.18,1.03-.42,1.5-.72.12-.08.23-.18.33-.29.24-.28.24-.56-.01-.83-.2-.22-.47-.35-.74-.46-.51-.2-1.05-.32-1.59-.41-1.46-.25-2.94-.34-4.42-.47-.55-.05-1.09-.11-1.62-.26-.34-.1-.61-.29-.83-.56-.19-.23-.25-.51-.25-.79-.02-.72.2-1.37.68-1.91.53-.6,1.2-.98,1.94-1.25,1.02-.39,2.09-.59,3.18-.7.54-.06,1.07-.1,1.61-.09Z"/><path class="cls-1" d="M68.02,37.35c.48,0,.97,0,1.45.04.39.03.55.2.56.6,0,.28,0,.57-.04.85-.03.26-.18.41-.42.48-.17.05-.34.06-.52.06-.96.05-1.92.1-2.87.15-.11,0-.22.01-.33.02-.3.02-.31.02-.39.32-.15.51-.3,1.02-.45,1.53-.1.33-.03.41.3.34.86-.18,1.72-.33,2.59-.47.49-.08.98-.12,1.47-.2.72-.12,1.29.62,1.31,1.12,0,.23-.06.43-.22.6-.35.38-.76.69-1.19.96-1.01.65-2.09,1.16-3.26,1.47-.51.13-1.03.17-1.55.12-.29-.03-.55-.13-.79-.29-.7-.46-1.24-1.06-1.4-1.91-.1-.51-.07-1.02.02-1.53.1-.57.24-1.13.46-1.66.1-.24.1-.45,0-.68-.12-.3-.18-.61-.18-.94,0-.36.13-.54.48-.64.15-.04.3-.07.46-.1.12-.02.2-.07.26-.18.23-.49.47-.97.7-1.45.08-.17.05-.21-.13-.23-.22-.02-.43-.07-.64-.14-.55-.2-.89-.63-1.13-1.13-.14-.29-.03-.5.29-.62.29-.11.6-.16.9-.22,1.31-.26,2.63-.45,3.96-.55.84-.07,1.68-.13,2.52-.1.37.01.69.14.98.37.45.37.75.84,1,1.36.02.04.03.09.04.13.1.33-.02.56-.36.64-.29.07-.59.12-.89.16-1.25.17-2.51.25-3.77.33-.07,0-.15.01-.22.01-.13,0-.21.07-.25.18-.11.35-.23.69-.33,1.04-.05.19-.02.22.19.21.46-.01.91-.03,1.37-.04Z"/><path class="cls-1" d="M88.47,38.63c-.84,0-1.68,0-2.52,0-.59,0-.72-.14-.73-.73,0-.42,0-.84,0-1.26,0-.11,0-.22.03-.33.05-.2.18-.32.38-.35.13-.02.26-.02.38-.02,1.67,0,3.35,0,5.02,0q.43,0,.41-.42c-.08-1.57-.25-3.13-.5-4.69-.04-.22-.08-.43-.11-.65-.04-.36.13-.56.49-.57.49,0,.99-.01,1.48,0,.37,0,.6.2.67.56.1.57.19,1.13.27,1.71.11.81.19,1.63.25,2.45.03.43.06.86.07,1.29,0,.29.03.32.32.32.62,0,1.24,0,1.86,0,1.12,0,2.23,0,3.35,0,.22,0,.41.03.56.23.07.09.11.18.11.3,0,.55,0,1.1,0,1.65,0,.24-.19.46-.43.49-.14.02-.29.02-.44.02-1.62,0-3.24,0-4.85,0-.46,0-.46,0-.47.47-.04,1.11-.13,2.21-.27,3.3-.07.54-.15,1.09-.23,1.63-.02.15-.05.31-.09.46-.07.26-.29.45-.55.46-.56.03-1.11.03-1.67,0-.24-.01-.4-.19-.4-.43,0-.16.03-.33.05-.49.23-1.29.4-2.58.48-3.89.02-.39.06-.78.08-1.18.02-.31,0-.33-.31-.33-.89,0-1.77,0-2.66,0h0Z"/><path class="cls-1" d="M51.46,41.06c.04-1.35.21-2.68.47-4,.16-.76.35-1.51.66-2.23.11-.26.25-.51.45-.72.43-.45.85-.47,1.32-.06.42.38.78.82,1.12,1.27.75.98,1.39,2.04,2.03,3.09.28.46.58.91.87,1.36.07.12.15.23.24.33.07.08.15.18.28.14.13-.04.14-.15.15-.26.02-.19.02-.38-.01-.57-.11-.79-.26-1.57-.42-2.35-.21-.99-.45-1.97-.72-2.95-.14-.51-.28-1.02-.43-1.53-.09-.29-.1-.57-.07-.87.04-.4.35-.57.71-.37.26.14.49.32.7.52.86.78,1.45,1.73,1.87,2.8.59,1.49.83,3.04.79,4.64-.02.93-.15,1.84-.4,2.73-.14.5-.38.95-.76,1.31-.73.7-1.72.67-2.39.03-.45-.44-.81-.94-1.15-1.46-.7-1.07-1.27-2.22-1.87-3.35-.12-.22-.24-.43-.38-.63-.1-.15-.18-.13-.25.03-.04.09-.04.18-.05.27-.09.63-.09,1.26-.12,1.89-.03,1-.04,1.99-.17,2.98-.03.22-.08.43-.13.64-.19.81-1.2.99-1.73.49-.16-.15-.29-.33-.37-.54-.16-.43-.19-.89-.23-1.35-.04-.44-.03-.88-.02-1.32Z"/><path class="cls-1" d="M38.3,40.73c.01.71.09,1.66.07,2.63,0,.22-.02.44-.06.66-.1.55-.39.81-.94.86-.2.02-.4.01-.6-.02-.55-.09-.9-.41-1.05-.95-.12-.45-.16-.92-.18-1.38-.11-1.95-.06-3.89.11-5.83.07-.8.19-1.6.38-2.38.06-.27.15-.53.3-.76.17-.25.35-.3.64-.18.38.17.59.47.72.85.16.47.23.96.29,1.45.19,1.6.26,3.21.33,5.07Z"/><path class="cls-1" d="M33.85,34.93c-.47-1.25-1.13-2.39-1.94-3.45-1.34-1.76-2.93-3.29-4.68-4.64-1.5-1.15-3.12-2.11-4.81-2.95-1.53-.75-3.11-1.37-4.73-1.9-1.28-.42-2.57-.77-3.88-1.06-1.15-.25-2.32-.43-3.49-.53-2.46-.21-4.89-.05-7.29.61-.67.18-1.26.49-1.7,1.04-.28.34-.47.73-.63,1.14-.17.44,0,.85.39,1,.65.26,1.33.3,2.02.18.04,0,.07-.02.1-.04.31-.14.37-.44.12-.68-.15-.15-.35-.2-.55-.23-.18-.03-.36-.04-.54-.08-.1-.02-.26.02-.28-.11-.02-.16.16-.15.26-.19.61-.21,1.24-.33,1.88-.39,1.27-.12,2.54-.13,3.81-.05,1.56.09,3.11.31,4.64.64,1.64.36,3.23.86,4.8,1.43,2.15.78,4.21,1.73,6.13,2.97,1.4.9,2.73,1.9,3.93,3.07,1.28,1.24,2.33,2.64,3.07,4.27.36.79.63,1.61.66,2.5.04,1.36-.4,2.55-1.27,3.58-.65.77-1.46,1.34-2.36,1.8-1.46.74-3.02,1.09-4.63,1.26-1.98.21-3.94.16-5.9-.2-.28-.05-.3-.07-.31-.35-.03-1.18-.05-2.36-.07-3.1-.03-1.35-.04-2.25-.06-3.16,0-.27-.02-.55-.02-.82,0-.29.03-.33.31-.32.43.01.86.03,1.29.07.8.08,1.6.19,2.39.33,1.03.19,2.05.46,3.05.78.19.06.35.15.49.29.21.21.22.46.04.69-.14.17-.3.32-.49.43-.2.11-.41.21-.6.33-.29.17-.28.41.02.56.14.07.29.11.44.15,1.27.31,2.64-.43,3.04-1.68.29-.92.05-1.73-.59-2.43-.46-.5-1.04-.83-1.66-1.09-1.15-.5-2.35-.79-3.58-.98-1.27-.19-2.55-.26-3.83-.24-.05,0-.11,0-.16,0-.11,0-.17-.06-.18-.17,0-.05,0-.11,0-.16-.01-.87-.06-1.74-.2-2.6-.1-.61-.24-1.22-.5-1.79-.18-.39-.39-.75-.75-.99-.3-.21-.54-.13-.69.19-.09.19-.14.4-.19.6-.27,1.11-.38,2.25-.46,3.39-.04.52-.05,1.04-.08,1.56-.01.24-.04.27-.26.31-.62.11-1.24.23-1.85.39-1.1.28-2.18.62-3.21,1.1-.71.34-1.39.73-1.95,1.31-.62.65-.76,1.39-.43,2.22.27.67.72,1.23,1.2,1.75.6.65,1.26,1.25,1.96,1.8,1.02.79,2.08,1.52,3.24,2.1.32.16.64.32.96.47.16.07.25.17.26.35.01.17.04.35.06.52.06.44.1.89.27,1.31.15.37.39.65.76.79.47.18.95.14,1.42-.05.22-.09.36-.26.45-.49.1-.25.12-.51.14-.78.02-.27.06-.3.32-.25.32.07.64.13.97.2.94.2,1.9.31,2.85.35,1.35.06,2.68-.02,4.01-.26,1.33-.24,2.62-.58,3.86-1.12,1.01-.44,1.96-.98,2.8-1.7.97-.83,1.68-1.85,2.25-2.97.44-.88.67-1.82.7-2.79.03-1.04-.16-2.06-.52-3.03ZM13.5,42.73c0,.2-.04.22-.23.16-.58-.19-1.14-.45-1.69-.71-1.16-.56-2.24-1.24-3.24-2.04-.49-.4-.95-.82-1.39-1.28-.11-.12-.22-.25-.29-.4-.14-.29-.09-.56.15-.76.31-.27.7-.39,1.09-.5.84-.24,1.7-.43,2.56-.58.89-.15,1.79-.27,2.69-.32.31-.02.33,0,.33.31,0,1.01,0,2.01,0,3.02,0,0,0,0,.01,0,0,.97,0,1.94,0,2.91,0,.06,0,.13,0,.19Z"/><path class="cls-1" d="M82.88,36.78c-.05-.73-.18-1.43-.57-2.07-.54-.89-1.41-1.19-2.38-.84-.76.27-1.39.73-1.98,1.26-1.11.99-2.05,2.13-2.93,3.33-.37.5-.72,1.01-1.07,1.53-.03.04-.05.11-.12.09-.06-.02-.07-.08-.08-.13-.02-.19-.01-.38.01-.57.11-.84.38-1.63.8-2.37.47-.84.95-1.67,1.39-2.52.23-.44.3-.92.32-1.4,0-.09,0-.18-.03-.27-.06-.22-.18-.28-.39-.19-.15.06-.28.16-.41.27-.97.89-1.8,1.89-2.45,3.04-.58,1.02-1.03,2.1-1.19,3.27-.15,1.16-.07,2.28.51,3.33.09.17.04.31-.03.47-.88,1.93-1.64,3.91-2.08,5.99-.17.79-.28,1.58-.26,2.39.04,1.12.48,2.05,1.29,2.81.19.18.41.32.66.44.37.17.64-.02.76-.37.07-.22.07-.45.11-.68.14-.82.27-1.64.44-2.45.2-.96.45-1.9.73-2.83.34-1.13.76-2.23,1.2-3.33.12-.31.14-.32.46-.27,1.1.17,2.13-.07,3.09-.61,1.49-.84,2.56-2.1,3.4-3.57.57-1,.77-2.12.78-3.27,0-.16,0-.31,0-.47ZM80.45,39.53c-.78,1.09-1.84,1.75-3.13,2.07-.16.04-.32.09-.48.1-.07,0-.15.06-.21-.01-.06-.07.01-.13.05-.2.26-.5.55-.99.85-1.46.79-1.24,1.71-2.39,2.71-3.47.14-.15.27-.3.44-.41.33-.22.57-.13.68.26.04.17.04.34.04.5-.03.99-.39,1.84-.95,2.62Z"/><path class="cls-1" d="M43.52,24.37c-.37-.37-.81-.6-1.31-.71-.2-.04-.35-.13-.48-.28-.41-.46-.93-.73-1.53-.85-.68-.13-1.35-.09-2.01.06-1.76.39-3.23,1.29-4.41,2.65-.41.47-.73,1-.91,1.61-.24.85-.21,1.67.3,2.42.29.42.47.84.44,1.37-.03.45.19.83.52,1.14.26.24.52.23.78,0,.17-.16.27-.36.39-.56.11-.18.12-.19.33-.12.48.14.96.23,1.46.22.74,0,1.45-.16,2.14-.43,1.52-.58,2.8-1.53,3.91-2.71.5-.54.85-1.16.97-1.9.12-.73-.04-1.37-.58-1.91ZM34.66,27.98s-.06.09-.1.13c-.07.07-.12.06-.17-.03-.08-.15-.11-.31-.1-.48-.02-.28.08-.54.23-.77.63-.97,1.49-1.61,2.62-1.89.08-.02.2-.09.25.01.04.1-.08.15-.15.2-.97.84-1.84,1.77-2.57,2.83ZM42.51,26.43c-.11.35-.3.65-.55.9-.81.83-1.79,1.38-2.92,1.65-.54.13-1.09.22-1.66.21-.21,0-.42-.01-.63-.03-.25-.02-.27-.09-.13-.29.5-.75,1.1-1.41,1.77-2.01.64-.57,1.31-1.12,2.08-1.5.38-.19.78-.31,1.21-.25.66.1,1.01.67.81,1.31Z"/></svg>