<?xml version="1.0" encoding="UTF-8"?><svg id="Capa_1" xmlns="http://www.w3.org/2000/svg" viewBox="0 0 107 55"><defs><style>.cls-1{fill:#1a1a1a;}</style></defs><path class="cls-1" d="M53.12,21.88c-8.56,0-17.12,0-25.68,0-.51,0-.5,0-.45-.5.08-.76.17-1.52.37-2.25.62-2.28,2.02-3.8,4.31-4.47.64-.19,1.29-.28,1.96-.28,13.28.01,26.57,0,39.85,0,.91,0,1.83.04,2.7.33,1.96.64,3.02,2.08,3.16,4.43.04.77-.02,1.55-.01,2.33,0,.33-.11.43-.45.43-5.55-.01-11.11,0-16.66,0-3.04,0-6.07,0-9.11,0Z"/><path class="cls-1" d="M37.67,24.7c3.23,0,6.45,0,9.68,0,.54,0,1.09.04,1.63.1,1.89.2,2.75,1.54,2.96,3.08.15,1.07-.02,2.15-.12,3.22-.13,1.37-.32,2.73-.55,4.08-.41,2.46-1.7,4.21-4.11,5.01-1.18.39-2.42.5-3.67.42-.39-.02-.79-.04-1.18-.04-5.65,0-11.3,0-16.95,0-.53,0-.54,0-.47-.51.31-2.03.63-4.06.93-6.09.05-.35.23-.35.49-.35,5.35,0,10.7,0,16.05.01.41,0,.6-.07.62-.53.03-.7.14-1.41.24-2.11.04-.26-.03-.33-.29-.33-3.85,0-7.71-.01-11.56.03-1.95.02-3.92-1.11-4.53-2.74-.36-.98-.38-2-.31-3.02.01-.18.11-.23.27-.23.11,0,.22,0,.33,0,3.51,0,7.02,0,10.54,0Z"/><path class="cls-1" d="M11.84,40.56c-3.66,0-7.32,0-10.99,0-.38,0-.47-.08-.42-.47.64-5.02,1.27-10.04,1.88-15.06.04-.34.16-.41.48-.41,7.34,0,14.67.01,22.01,0,.39,0,.44.12.4.46-.22,1.73-.43,3.45-.61,5.19-.04.36-.17.43-.5.43-4.46-.01-8.92,0-13.39-.02-.4,0-.51.12-.54.49-.06.69-.14,1.38-.26,2.06-.06.34.06.4.35.38.24-.02.49,0,.73,0,4.25,0,8.49,0,12.74,0,.38,0,.45.1.4.46-.28,2.03-.54,4.07-.79,6.11-.04.33-.16.39-.46.39-3.69,0-7.38,0-11.07,0Z"/><path class="cls-1" d="M66.34,24.7c3.97,0,7.95,0,11.92,0,.51,0,.52,0,.46.51-.08.76-.19,1.51-.4,2.25-.49,1.74-1.64,3-3.65,3.16-.71.05-1.41.12-2.12.12-3.4,0-6.8,0-10.21,0-.57,0-.57,0-.63.55-.34,2.97-.69,5.94-1.02,8.91-.03.3-.14.38-.43.38-2.63-.01-5.25-.01-7.88,0-.33,0-.41-.09-.37-.42.63-5.03,1.25-10.06,1.85-15.1.04-.37.23-.36.49-.36,3.99,0,7.97,0,11.96,0Z"/><path class="cls-1" d="M93.39,21.95c-4.15,0-8.3,0-12.45,0-.41,0-.47-.13-.41-.49.32-2.23.64-4.47.93-6.7.04-.31.14-.4.45-.4,6.44,0,12.87,0,19.31,0,1.27,0,2.52.21,3.59,1.01,1.16.88,1.66,2.09,1.75,3.49.06.94-.09,1.87-.23,2.8-.04.28-.21.27-.41.26-1.92,0-3.84,0-5.76,0-2.26,0-4.52,0-6.78,0Z"/><path class="cls-1" d="M15.11,14.38c3.66,0,7.32,0,10.98,0,.39,0,.48.11.43.48-.31,2.24-.6,4.47-.88,6.71-.04.32-.2.32-.43.32-2.38,0-4.76,0-7.14,0-4.94,0-9.88,0-14.82,0-.37,0-.46-.08-.41-.45.29-2.24.57-4.48.83-6.72.04-.33.21-.34.46-.34,3.66,0,7.32,0,10.98,0Z"/><path class="cls-1" d="M84.4,24.7c1.31,0,2.61,0,3.92,0,.27,0,.37.03.33.36-.6,4.79-1.18,9.58-1.76,14.36-.01.11-.04.21-.05.32q-.11.82-.92.82c-2.39,0-4.79,0-7.18,0-.4,0-.47-.12-.43-.49.44-3.59.86-7.18,1.29-10.77.17-1.42.35-2.83.49-4.25.03-.31.15-.37.43-.37,1.29.01,2.58,0,3.88,0Z"/><path class="cls-1" d="M99.61,40.56c-1.28,0-2.56,0-3.84,0-.29,0-.36-.07-.32-.37.56-4.49,1.1-8.99,1.64-13.48.07-.55.14-1.11.19-1.66.02-.22.1-.31.33-.31,2.63,0,5.25,0,7.88,0,.34,0,.29.19.26.4-.22,1.77-.44,3.53-.66,5.3-.4,3.22-.81,6.45-1.19,9.67-.05.38-.18.46-.53.45-1.25-.02-2.5,0-3.76,0Z"/></svg>