<?xml version="1.0" encoding="UTF-8"?>
<svg id="Capa_1" xmlns="http://www.w3.org/2000/svg" version="1.1" viewBox="0 0 115.9 55">
  <!-- Generator: Adobe Illustrator 29.1.0, SVG Export Plug-In . SVG Version: 2.1.0 Build 142)  -->
  <path d="M86.1,41.7h-8.7c-.5-.6-.9-3.7-1.5-3.9h-9.7c0,0-1.2,3.9-1.2,3.9h-8.6l10.5-28.4,9,.2,10.2,28.3ZM74.6,32.4l-3.5-11.6-3.3,11.6h6.9Z"/>
  <polygon points="60.9 13.3 58.8 19.5 48 19.5 48 25.2 56.5 25.2 54.4 31.4 48 31.4 48 41.7 39.2 41.7 39.2 13.3 60.9 13.3"/>
  <polygon points="21.6 13.3 19.4 19.5 8.9 19.5 8.7 19.7 8.7 25.2 17.3 25.2 15.2 31.4 8.9 31.4 8.7 31.7 8.7 41.7 0 41.7 0 13.3 21.6 13.3"/>
  <rect x="24.3" y="13.3" width="8.8" height="28.4"/>
  <path d="M91.4,23.3c5.9-.8,6.6,8.1.9,8.5s-6.3-7.8-.9-8.5Z"/>
  <path d="M101.2,23.3c6-.8,6.7,8.1.9,8.4-5.5.3-6.1-7.7-.9-8.4Z"/>
  <path d="M101.6,13.3c5.6-.4,6.2,7.7,1.1,8.4s-6.8-8-1.1-8.4Z"/>
  <path d="M101.1,33.3c6.2-1,6.9,8.1,1.1,8.4s-6.1-7.6-1.1-8.4Z"/>
  <path d="M111.2,23.3c5.9-.7,6.5,8.1.9,8.5s-6.3-7.8-.9-8.5Z"/>
</svg>