<?xml version="1.0" encoding="UTF-8"?><svg id="Capa_1" xmlns="http://www.w3.org/2000/svg" viewBox="0 0 89 55"><defs><style>.cls-1{fill:#1a1a1a;}</style></defs><path class="cls-1" d="M22.59,12.94c-.71,1.96-1.44,3.92-2.13,5.89-.14.4-.32.51-.73.5-3.32-.02-6.63,0-9.95-.02-.35,0-.44.09-.44.44.02,1.69.02,3.37,0,5.06,0,.31.09.39.39.39,2.67-.01,5.34,0,8.01,0,.4,0,.4,0,.26.37-.68,1.89-1.37,3.77-2.04,5.66-.1.28-.24.36-.52.35-1.91-.01-3.81,0-5.72-.01-.31,0-.38.09-.38.39,0,3.36,0,6.72,0,10.08-2.97,0-5.94,0-8.9,0-.25,0-.32-.04-.32-.31,0-9.5,0-19,0-28.5,0-.24.03-.31.3-.31,7.39,0,14.78,0,22.18,0Z"/><path class="cls-1" d="M40.62,42.05c0-.14-.02-.28-.02-.41,0-9.42,0-18.85,0-28.27,0-.14.01-.28.02-.41,7.47,0,14.93,0,22.4,0,.19.14.12.3.06.47-.4,1.1-.79,2.19-1.19,3.29-.27.74-.53,1.48-.8,2.21-.19.53-.25.57-.8.57-3.06,0-6.12,0-9.19,0-1.04,0-1.08.04-1.08,1.1,0,1.14,0,2.29,0,3.43,0,.94.07,1.01,1,1.01,2.36,0,4.71,0,7.07,0,.71,0,.75.06.52.72-.64,1.81-1.3,3.61-1.95,5.41-.21.59-.22.59-.86.59-1.59,0-3.19,0-4.78,0-.16,0-.32,0-.48.01-.3.03-.46.19-.49.49-.02.18-.01.37-.01.55,0,2.89,0,5.77,0,8.66,0,.21.03.43-.17.57h-9.22Z"/><path class="cls-1" d="M34.45,12.94c0,.14.02.28.02.41,0,9.36,0,18.72,0,28.09q0,.52-.53.52c-2.74,0-5.48,0-8.21,0q-.49,0-.49-.48c0-9.34,0-18.68,0-28.02,0-.17,0-.35-.01-.52,3.07,0,6.15,0,9.22,0Z"/><path class="cls-1" d="M88.59,40.7c-.7-1.9-1.38-3.8-2.07-5.7-1.49-4.08-2.96-8.16-4.45-12.24-1.14-3.12-2.26-6.25-3.41-9.38-.07-.18-.15-.34-.33-.44h-9.43c-.21.09-.29.27-.37.47-.7,1.88-1.37,3.78-2.05,5.66-1.32,3.62-2.63,7.25-3.95,10.87-1.09,2.99-2.17,5.99-3.26,8.98-.32.89-.66,1.78-.96,2.67-.05.15-.12.31.06.44h8.94c.23-.13.3-.36.37-.59.24-.8.47-1.59.72-2.39.17-.55.32-.66.9-.66,2.87,0,5.75,0,8.62,0,.59,0,.73.12.91.69.24.81.49,1.61.73,2.42.06.22.14.42.37.52,2.89,0,5.78,0,8.67,0,.09,0,.21.08.28-.07-.11-.42-.14-.86-.29-1.28ZM76.85,32.47c-.07,0-.14,0-.21,0-2.03,0-4.07,0-6.1,0-.34,0-.38-.08-.29-.39,1.08-3.66,2.15-7.32,3.23-10.98.03-.1.04-.2.17-.32.39,1.34.77,2.63,1.15,3.92.71,2.42,1.42,4.84,2.13,7.27.03.09.05.18.07.27.04.14,0,.23-.16.22Z"/></svg>