<?xml version="1.0" encoding="UTF-8"?><svg id="Capa_1" xmlns="http://www.w3.org/2000/svg" viewBox="0 0 185 55"><defs><style>.cls-1{fill:#1a1a1a;}</style></defs><path class="cls-1" d="M.43,40.56c.08-.2.15-.4.23-.59.38-.91,1.21-1.33,2.17-1.08.81.21,1.22.86,1.08,1.86-.11.76-.22,1.52-.11,2.28.45,2.99,2.84,4.7,6.19,4.62,4.12-.1,7.25-1.98,9.73-5.13,2.02-2.57,3.48-5.46,4.85-8.42,1.81-3.91,3.41-7.93,5.5-11.71,1.69-3.06,3.69-5.86,6.53-7.97.33-.24.72-.85,1.13-.43.36.37-.25.74-.46,1.06-2.6,3.94-3.92,8.38-5.16,12.89,6.74-.4,12.81-7.54,9.73-14.95-1.17-2.81-3.57-4.3-6.41-4.86-8.16-1.59-15.53,0-21.44,6.14-3.19,3.31-4.37,7.42-3.41,11.97.74,3.53,3.63,5.26,7.03,4.39,2.39-.61,3.83-2.62,3.86-5.48,0-.85.24-1.43,1.13-1.61.99-.2,1.64.3,1.63,1.3-.02,2.49-1.14,4.42-3.33,5.53-3.22,1.62-6.56,1.67-9.82.07-2.58-1.27-3.78-3.53-3.99-6.29-.33-4.14,1.23-7.63,4.07-10.55,3.71-3.82,8.4-5.71,13.52-6.72.88-.17,1.81-.13,2.65-.54h5.89c1.11.35,2.29.31,3.42.55,2.79.59,5.45,1.5,7.64,3.4,3.98,3.46,4.32,9.08.82,13.04-1.92,2.17-4.37,3.53-7.04,4.52-1.78.66-3.62,1.18-5.5,1.43-.7.09-.98.39-1.17,1.02-1.07,3.54-2.6,6.87-4.84,9.84-3.53,4.69-8.07,7.71-14.01,8.38-.11.01-.2.1-.3.15h-4.05c-.68-.18-1.38-.2-2.07-.24-1.41-.09-2.56-.75-3.65-1.52-1.25-.89-1.84-2.17-1.92-3.69-.01-.21.07-.43-.09-.62,0-.67,0-1.35,0-2.02Z"/><path class="cls-1" d="M184.57,25.48c-.41.89-.85,1.76-1.21,2.67-.23.59-.53.83-1.21.82-2.51-.05-5.03.02-7.54-.04-.79-.02-1.12.28-1.4.95-.97,2.34-2.02,4.66-3,7-.21.51-.48.69-1.02.67-.95-.04-1.9-.05-2.85,0-.81.05-.74-.26-.49-.83,1.03-2.32,2.01-4.66,3.05-6.98.3-.67.16-.82-.54-.81-2.78.03-5.57.01-8.49.01.51-1.17.98-2.22,1.43-3.28.18-.44.54-.33.85-.33,2.58,0,5.15-.03,7.73.01.67.01,1.02-.17,1.29-.82.97-2.35,2.04-4.65,3.01-6.99.24-.59.55-.76,1.16-.74,1.13.05,2.27.01,3.39.01.15.34-.07.56-.17.79-1,2.33-2,4.66-3.04,6.98-.27.6-.21.78.49.77,2.85-.04,5.7-.03,8.55-.04v.18Z"/><path class="cls-1" d="M154.9,25.31c-.03-.44.18-.73.32-1.03.58-1.35,1.16-2.7,1.77-4.04.23-.49.14-.65-.41-.63-.89.03-1.78.04-2.67,0-.56-.03-.81.19-1.01.69-.58,1.41-1.26,2.79-1.82,4.21-.26.65-.61.94-1.29.82-.94-.17-1.32.33-1.45,1.27h1.83c-1.53,3.23-2.71,6.5-4.72,9.35-.78,1.1-1.58,2.2-2.79,2.89-.31.17-.69.39-1.03.11-.35-.28-.18-.68-.06-1.02.39-1.17.95-2.25,1.46-3.36.91-1.97,2.01-3.86,2.66-5.95.71-2.33-.47-3.74-2.9-3.49-.36.04-.71.16-1.06.27-1.22.4-2.18,1.22-3.23,2.01.26-.66.52-1.33.81-2.08-1.11,0-2.09.03-3.06-.01-.54-.02-.82.16-1.03.67-.84,2-1.7,4-2.61,5.97-1.05,2.26-2.31,4.39-4.05,6.21-.48.5-1.12,1.2-1.78.76-.63-.43-.03-1.19.2-1.75.92-2.2,1.9-4.38,2.85-6.57.76-1.73,1.51-3.46,2.31-5.3-1.1,0-2.08.06-3.05-.02-.8-.07-1.18.2-1.49.95-.87,2.15-1.83,4.28-2.78,6.4-.87,1.94-1.97,3.74-3.43,5.3-.45.47-.94.88-1.58,1.07-.61.18-.88-.07-.84-.68.04-.56.29-1.06.52-1.56,1.63-3.56,3.27-7.12,4.9-10.68.1-.23.33-.44.19-.77-.8,0-1.61.08-2.39-.02-1.13-.13-1.8.21-2.16,1.35-.32,1-.97,1.85-1.84,2.47-1.36.97-2.66.51-3.08-1.07-.46-1.75-1.73-2.82-3.55-2.96-2.67-.22-4.86.77-6.65,2.7-1.71,1.83-2.65,4.09-3.53,6.39-.65,1.69-1.74,3.09-3.09,4.27-.42.37-1.01.86-1.54.48-.59-.42-.15-1.09.08-1.59.84-1.87,1.75-3.71,2.59-5.58.59-1.31,1.23-2.61,1.49-4.04.28-1.58-.62-2.64-2.21-2.65-.68,0-1.33.12-1.98.35-1.35.49-2.46,1.34-3.62,2.47,0-.45,0-.66,0-.88-.06-1.36-.65-1.93-2.02-1.95-1.07-.01-2.06.29-2.94.9-.69.48-1.34,1.01-2.15,1.63.25-.65.42-1.16.66-1.65.23-.47.17-.66-.39-.63-.8.03-1.6.04-2.39,0-.51-.03-.75.14-.95.61-.85,2-1.75,3.98-2.63,5.96-.84,1.91-1.82,3.75-3.15,5.37-.5.62-1.04,1.21-1.75,1.6-.26.14-.55.33-.85.08-.28-.22-.28-.54-.18-.84.18-.55.35-1.11.58-1.64,1.37-3.14,2.75-6.28,4.13-9.41.52-1.19.44-1.37-.81-1.68-.21-.05-.42-.09-.63-.12-3.66-.61-6.84.49-9.67,2.77-.72.58-1.43,1.16-2.29,1.52-.26.11-.57.36-.84.05-.27-.31,0-.58.13-.84.38-.77.88-1.48,1.05-2.34.19-.98-.18-1.4-1.16-1.35-.93.05-1.7.48-2.41,1.04-.58.46-1.12.96-1.83,1.58.35-.89.62-1.59.93-2.37-1.04,0-1.97.04-2.88-.02-.6-.04-.85.21-1.07.73-.97,2.25-1.96,4.49-2.98,6.71-.94,2.04-2.08,3.96-3.67,5.58-.3.31-.61.62-1.02.77-.69.26-1.03.02-.9-.71.1-.54.28-1.07.5-1.57,1.42-3.29,2.86-6.56,4.3-9.84.48-1.1.39-1.36-.82-1.6-2.82-.56-5.52-.35-8.1,1.11-3.42,1.94-5.52,4.96-7.08,8.43-.6,1.33-.92,2.73-.76,4.2.15,1.37,1.1,2.28,2.48,2.4,1.46.13,2.71-.38,3.81-1.29.55-.45,1.06-.95,1.63-1.47.07,2.16.94,3.03,2.71,2.74.99-.16,1.85-.63,2.61-1.27.48-.4.95-.83,1.63-1.43-.39.97-.68,1.68-1.01,2.5,1.13,0,2.14-.03,3.14.01.58.03.86-.18,1.09-.71,1.25-2.89,2.54-5.77,3.83-8.65.55-1.24,1.25-2.39,2.21-3.36.2-.2.46-.54.75-.33.26.2-.05.49-.15.73-.26.66-.57,1.35-.03,1.99.56.67,1.33.47,2.06.35.49-.08.88-.48,1.45-.47-.54.9-1.08,1.72-1.54,2.58-.92,1.72-1.61,3.51-1.44,5.52.13,1.55,1.16,2.53,2.71,2.55,1.36.02,2.5-.55,3.51-1.4.62-.52,1.19-1.11,1.87-1.74.01.24.02.38.03.52.05,2.17,1.23,3.03,3.34,2.44.48-.14.9-.38,1.31-.64.73-.46,1.25-1.17,2.09-1.85-.36.91-.65,1.63-.98,2.44,1.17,0,2.21-.04,3.24.01.59.03.87-.19,1.09-.71.85-2,1.74-3.98,2.61-5.97.78-1.77,1.51-3.55,2.73-5.08.65-.82,1.36-1.58,2.31-2.07.31-.16.65-.25.96-.04.36.24.21.6.11.92-.12.38-.26.75-.42,1.11-1.49,3.46-2.99,6.91-4.48,10.36-.2.47-.5.91-.54,1.5,1.04,0,2.05-.06,3.05.02.77.06,1.12-.25,1.41-.92,1.4-3.19,2.71-6.43,4.3-9.54.66-1.29,1.51-2.46,2.77-3.26.41-.26.95-.52,1.38-.2.48.35.22.9.07,1.35-.11.35-.27.68-.43,1.01-1.07,2.27-2.13,4.55-3.21,6.81-.37.78-.66,1.58-.78,2.44-.19,1.46.55,2.35,2.01,2.51,1.52.17,2.74-.43,3.87-1.36,1-.81,1.78-1.83,2.7-2.91.03.29.04.42.05.56.24,2.41,1.78,3.79,4.21,3.84,3.07.07,5.33-1.41,7.11-3.74,1.5-1.98,2.47-4.21,2.91-6.67.05-.28-.02-.79.54-.61.86.28,1.68.06,2.6-.2-.93,2-1.8,3.88-2.68,5.76-.41.87-.7,1.77-.78,2.72-.16,1.86,1.32,3.09,3.14,2.6.93-.25,1.76-.69,2.53-1.27.84-.63,1.5-1.43,2.28-2.25-.04.46-.09.82-.1,1.17-.04,1.92,1.02,2.76,2.88,2.34,1.12-.25,2.01-.88,2.8-1.67.26-.26.44-.61.65-.92.1.09.21.18.31.27-.27.66-.53,1.32-.84,2.07,1.22,0,2.32-.02,3.42.01.47.01.71-.13.88-.57.46-1.13.96-2.25,1.47-3.37,1.15-2.53,2.12-5.16,3.67-7.5.56-.85,1.16-1.67,2.03-2.23.48-.31,1.06-.72,1.6-.31.58.43.16,1.04-.05,1.5-1.01,2.23-2.07,4.44-3.1,6.66-.52,1.11-1,2.23-1.11,3.48-.13,1.55.65,2.48,2.19,2.53,1.47.05,2.63-.7,3.75-1.53.81-.59,1.44-1.38,2.24-2.2-.12.63-.23,1.11-.3,1.59-.38,2.69,1.13,4.33,3.83,4.19,2.25-.12,6.18-3.05,6.92-5.14.13-.38-.16-.48-.33-.67-.23-.26-.37-.03-.5.14-.38.48-.72.99-1.14,1.44-.96,1.03-1.89,2.12-3.37,2.43-1.2.26-1.84-.24-1.86-1.45-.02-1.03.3-2,.69-2.93,1.31-3.1,2.73-6.16,3.97-9.28.48-1.21,1.11-1.79,2.41-1.53.94.19,1.31-.33,1.41-1.27h-2.37ZM45.19,36.45c-.59.87-1.26,1.66-2.14,2.25-.49.33-1.04.58-1.63.22-.57-.35-.4-.91-.31-1.41.09-.54.21-1.08.39-1.6.95-2.68,2.33-5.12,4.23-7.24,1.12-1.26,2.49-2.14,4.45-2.29-1.69,3.47-2.9,6.99-4.98,10.07ZM70.42,36.53c-.58.87-1.23,1.68-2.16,2.22-.48.28-1,.5-1.56.18-.59-.34-.42-.89-.36-1.4.04-.39.12-.79.24-1.17.96-2.91,2.43-5.55,4.5-7.82,1.11-1.21,2.46-2.07,4.32-2.15-1.68,3.45-2.88,7-4.97,10.12ZM111.95,29.24c-.82,3.39-2.17,6.55-4.16,9.42-.33.48-.73.9-1.23,1.22-.52.33-1.07.49-1.64.18-.59-.32-.52-.91-.53-1.21.04-1.55.47-2.77.91-3.97.93-2.5,2.05-4.9,3.73-7.01.39-.48.8-.94,1.36-1.22.95-.48,1.66-.1,1.73.96.04.54-.04,1.1-.17,1.63Z"/></svg>